<?xml version="1.0" encoding="UTF-8"?><svg version="1.1" id="Layer_1" xmlns="http://www.w3.org/2000/svg" xmlns:xlink="http://www.w3.org/1999/xlink" x="0px" y="0px" viewBox="0 0 600 600" enable-background="new 0 0 600 600" xml:space="preserve" width="600px" height="600px">
<g>
	<g id="Layer_1_1_">
		<rect y="0.399" fill="#4F3183" width="600" height="600"/>
		<path fill="#4F3183" d="M199.191,600.4C94.69,559.379,20.7,457.612,20.7,338.56c0-155.3,125.892-281.189,281.189-281.189
			S583.08,183.264,583.08,338.56c0,119.052-73.988,220.819-178.489,261.839H600V68.017C576.501,42.134,549.747,19.406,520.406,0.4
			H83.375C52.442,20.437,24.391,44.606,0,72.237V600.4H199.191z"/>
		<path fill="#4F3183" d="M583.08,338.56c0-155.3-125.892-281.189-281.189-281.189S20.7,183.264,20.7,338.56
			c0,119.052,73.99,220.819,178.491,261.84h205.4C509.092,559.379,583.08,457.612,583.08,338.56z"/>
		<path opacity="0.15" fill="#331F5B" enable-background="new    " d="M583.08,338.56c0-155.3-125.892-281.189-281.189-281.189
			S20.7,183.264,20.7,338.56c0,119.052,73.99,220.819,178.491,261.84h205.4C509.092,559.379,583.08,457.612,583.08,338.56z"/>
		<circle opacity="0.15" fill="#331F5B" enable-background="new    " cx="301.891" cy="338.56" r="192.027"/>
		<path fill="#4F3183" d="M387.912,250.362c-21.623-23.376-50.827-38.336-82.432-42.225c0-2.168,0-4.35,0-6.545h0.283
			c1.657,0,3-1.343,3-3v-15.338l1.755-6.338c0.072-0.261,0.108-0.53,0.108-0.8V165.49c0-1.657-1.343-3-3-3h-3.451
			c-1.594-2.031-3.579-3.721-5.838-4.97v-13.7c0-1.083-0.583-2.081-1.526-2.613v-18.328c0-4.418-3.582-8-8-8s-8,3.582-8,8v18.485
			c-0.799,0.562-1.275,1.477-1.275,2.454v13.7c-2.259,1.25-4.244,2.94-5.838,4.97H270c-1.657,0-3,1.343-3,3v10.626
			c0,0.27,0.037,0.539,0.109,0.8l1.755,6.338v15.338c0,1.657,1.343,3,3,3h0.289c0,2.205,0,4.397,0,6.577
			c-30.439,3.806-58.668,17.883-80.022,39.905c-12.304-4.54-25.958,1.755-30.498,14.058c-0.645,1.749-1.082,3.568-1.302,5.42
			c-8.864,4.272-12.587,14.921-8.314,23.786c1.821,3.779,4.918,6.794,8.743,8.514c-16.929,51.598-1.31,108.317,39.647,143.974
			l0.474,0.4c0.827,0.713,1.662,1.415,2.517,2.116l0.81,0.661c0.981,0.793,1.968,1.576,2.941,2.317l0.113,0.088
			c1.028,0.783,2.072,1.548,3.135,2.31l0.841,0.6c0.88,0.622,1.768,1.233,2.663,1.832l0.61,0.412c1.072,0.711,2.158,1.406,3.269,2.1
			l0.776,0.475c0.892,0.547,1.79,1.083,2.693,1.608c8.531,4.96,17.582,8.965,26.99,11.943l3.905,1.233
			c0.23,0.073,0.469,0.116,0.711,0.128l0.332,0.093c1.555,0.426,3.145,0.832,4.738,1.206l0.278,0.064
			c3.113,0.727,6.326,1.353,9.554,1.863l0.653,0.1c1.6,0.246,3.189,0.461,4.743,0.644l0.335,0.035
			c1.424,0.163,2.927,0.308,4.458,0.432l0.69,0.057c1.457,0.111,3.007,0.2,4.62,0.268l0.933,0.034c1.79,0.062,3.3,0.091,4.746,0.091
			c1.428,0,2.932-0.029,4.738-0.091l1-0.036c1.661-0.071,3.174-0.159,4.656-0.272l0.537-0.046c1.418-0.114,2.88-0.256,4.337-0.42
			l0.667-0.073c1.554-0.184,3.121-0.4,4.676-0.636l0.6-0.1c3.186-0.5,6.371-1.125,9.471-1.847l0.457-0.107
			c3.165-0.749,6.327-1.618,9.4-2.584c9.262-2.916,18.181-6.828,26.6-11.665c1.188-0.682,2.367-1.382,3.538-2.1l0.257-0.161
			c1.052-0.652,2.095-1.319,3.129-2l0.668-0.441c2.237-1.49,4.451-3.062,6.594-4.684l0.574-0.44
			c0.918-0.702,1.826-1.415,2.724-2.138l0.517-0.415c1.049-0.856,2.088-1.725,3.133-2.629l0.211-0.186
			c0.926-0.806,1.839-1.626,2.754-2.466l0.61-0.563c54.508-50.657,57.697-135.885,7.128-190.474L387.912,250.362z"/>
		<path fill="#FFFFFF" d="M401.23,246.551c-21.6-23.351-50.742-38.338-82.3-42.327c0-1.86,0-3.73,0-5.609
			c1.845-0.115,3.283-1.645,3.283-3.494v-15.27l1.736-6.273c0.084-0.304,0.127-0.618,0.127-0.933v-10.626c0-1.933-1.567-3.5-3.5-3.5
			h-3.21c-1.546-1.922-3.439-3.537-5.579-4.763v-13.409c0-1.157-0.571-2.239-1.526-2.891v-18.048c0-4.694-3.806-8.5-8.5-8.5
			s-8.5,3.806-8.5,8.5v18.238c-0.808,0.664-1.276,1.654-1.275,2.7v13.409c-2.14,1.226-4.033,2.841-5.579,4.763h-3.457
			c-1.933,0-3.5,1.567-3.5,3.5v10.626c0,0.315,0.043,0.629,0.127,0.933l1.736,6.273v15.27c0,1.852,1.442,3.383,3.291,3.494
			c0,1.89,0,3.771,0,5.642c-30.279,3.884-58.352,17.899-79.654,39.765c-12.628-4.463-26.483,2.156-30.946,14.785
			c-0.566,1.602-0.962,3.259-1.182,4.944c-9.047,4.527-12.711,15.532-8.184,24.579c1.82,3.636,4.797,6.564,8.464,8.321
			c-16.775,51.693-1.055,108.407,39.938,144.088l0.469,0.4c0.83,0.716,1.669,1.42,2.528,2.126l0.811,0.661
			c0.984,0.8,1.975,1.581,2.958,2.331l0.107,0.082c1.032,0.788,2.081,1.556,3.148,2.32l0.842,0.6
			c0.884,0.625,1.775,1.239,2.674,1.841l0.612,0.412c1.078,0.714,2.167,1.412,3.287,2.108l0.774,0.474
			c0.894,0.549,1.794,1.087,2.7,1.614c8.563,4.977,17.648,8.997,27.091,11.986l3.9,1.235c0.253,0.08,0.514,0.129,0.779,0.146
			l0.283,0.079c1.565,0.43,3.161,0.836,4.753,1.21l0.282,0.066c3.124,0.728,6.349,1.357,9.59,1.87l0.654,0.1
			c1.615,0.247,3.204,0.462,4.766,0.646l0.329,0.035c1.418,0.162,2.926,0.309,4.474,0.434l0.695,0.057
			c1.458,0.111,3.012,0.2,4.641,0.27l0.931,0.033c1.792,0.063,3.306,0.092,4.765,0.092c1.439,0,2.949-0.029,4.754-0.092l1.009-0.036
			c1.666-0.071,3.185-0.159,4.678-0.273l0.535-0.046c1.423-0.115,2.89-0.256,4.354-0.421l0.668-0.075
			c1.568-0.184,3.141-0.4,4.7-0.637l0.6-0.1c3.194-0.506,6.39-1.129,9.507-1.854l0.458-0.108c3.181-0.753,6.354-1.625,9.431-2.594
			c9.294-2.928,18.245-6.853,26.694-11.708c1.194-0.684,2.378-1.388,3.552-2.112l0.261-0.162c1.055-0.654,2.101-1.324,3.14-2.009
			l0.67-0.442c2.244-1.5,4.466-3.073,6.62-4.7l0.576-0.441c0.92-0.705,1.83-1.42,2.73-2.145l0.52-0.416
			c1.054-0.86,2.1-1.733,3.144-2.64l0.213-0.186c0.93-0.809,1.846-1.632,2.766-2.476l0.61-0.564
			c54.71-50.844,57.911-136.389,7.155-191.18L401.23,246.551z"/>
		<circle fill="#F7A031" cx="301.891" cy="338.56" r="128.905"/>
		<circle fill="#F7A031" cx="301.891" cy="338.56" r="128.905"/>
		<path fill="#140735" d="M301.891,469.466c-72.182,0-130.906-58.724-130.906-130.906s58.724-130.9,130.906-130.9
			S432.8,266.379,432.8,338.56S374.072,469.466,301.891,469.466z M301.891,211.655c-70.088,0.002-126.905,56.821-126.903,126.909
			c0.002,70.088,56.821,126.905,126.909,126.903c70.087-0.002,126.904-56.82,126.903-126.907
			C428.721,268.504,371.947,211.732,301.891,211.655z"/>
		<circle fill="#FBC14C" cx="301.891" cy="338.56" r="96.137"/>
		<circle fill="#FFDB81" cx="301.891" cy="338.56" r="61.963"/>
		<path fill="#FFFFFF" d="M384.49,322.9h-1.553c0.023-0.295,0.045-0.59,0.045-0.89c0.001-6.368-5.16-11.531-11.528-11.532
			c-5.526-0.001-10.275,3.919-11.323,9.345h-0.165c-4.711,0-8.53,3.819-8.53,8.53l0,0c0,4.71,3.819,8.529,8.529,8.529
			c0,0,0.001,0,0.001,0h24.524c3.861-0.004,6.988-3.136,6.985-6.997C391.471,326.029,388.346,322.904,384.49,322.9L384.49,322.9z"/>
		<path fill="#140735" d="M384.49,338.887h-24.524c-5.816,0-10.53-4.714-10.531-10.529c0-5.27,3.896-9.729,9.119-10.436
			c2.26-7.123,9.866-11.066,16.989-8.806c5.237,1.661,8.949,6.325,9.395,11.801c4.959,0.256,8.771,4.484,8.515,9.443
			C393.206,335.133,389.269,338.878,384.49,338.887L384.49,338.887z M359.966,321.828c-3.606-0.045-6.566,2.842-6.611,6.448
			c-0.045,3.606,2.842,6.566,6.448,6.611c0.054,0.001,0.108,0.001,0.162,0h24.524c2.756-0.003,4.989-2.24,4.986-4.996
			c-0.003-2.752-2.233-4.983-4.986-4.986h-1.552c-1.105,0.003-2.003-0.89-2.006-1.994c0-0.053,0.002-0.105,0.006-0.158
			c0.019-0.244,0.039-0.489,0.039-0.738c0.001-5.263-4.265-9.531-9.529-9.531c-4.567-0.001-8.492,3.238-9.358,7.722
			c-0.181,0.942-1.005,1.622-1.964,1.622H359.966z"/>
		<path opacity="0.6" fill="#F7A031" enable-background="new    " d="M330.558,228.2L330.558,228.2
			c-0.794,0-1.437-0.643-1.437-1.437c0,0,0,0,0,0l0,0c-0.003-1.045-0.849-1.892-1.894-1.895l0,0
			c-1.045,0.003-1.892,0.85-1.895,1.895l0,0c0,0.792-0.64,1.434-1.432,1.437l0,0c-1.046-0.003-1.897,0.842-1.9,1.888
			c0,0.001,0,0.001,0,0.002l0,0c0,1.046,0.848,1.894,1.894,1.894l0,0l0,0c0.794,0,1.437,0.643,1.437,1.437c0,0,0,0,0,0l0,0
			c-0.003,1.046,0.842,1.897,1.888,1.9c0.002,0,0.005,0,0.007,0l0,0c1.046,0,1.894-0.848,1.894-1.894c0-0.002,0-0.004,0-0.006l0,0
			c0-0.794,0.643-1.437,1.437-1.437l0,0l0,0c1.046,0,1.894-0.848,1.894-1.894c0,0,0,0,0,0l0,0
			C332.449,229.046,331.602,228.201,330.558,228.2z"/>
		<path opacity="0.6" fill="#F7A031" enable-background="new    " d="M374.352,367.593L374.352,367.593
			c-0.704,0-1.274-0.57-1.274-1.274l0,0c0-0.928-0.752-1.68-1.68-1.68l0,0c-0.928,0-1.68,0.752-1.68,1.68l0,0
			c0,0.704-0.57,1.274-1.274,1.274l0,0c-0.928,0.001-1.68,0.753-1.68,1.681l0,0c0,0.928,0.752,1.68,1.68,1.68l0,0
			c0.704,0,1.274,0.57,1.274,1.274l0,0c0,0.928,0.752,1.68,1.68,1.68l0,0c0.928,0,1.68-0.752,1.68-1.68l0,0
			c0-0.704,0.57-1.274,1.274-1.274l0,0c0.928,0,1.68-0.752,1.68-1.68l0,0C376.032,368.346,375.28,367.594,374.352,367.593z"/>
		<path opacity="0.6" fill="#F7A031" enable-background="new    " d="M250.473,344.858L250.473,344.858
			c-0.602,0-1.09-0.488-1.09-1.09l0,0c-0.001-0.793-0.644-1.436-1.437-1.437l0,0c-0.794,0-1.437,0.643-1.437,1.437l0,0l0,0
			c0,0.602-0.488,1.09-1.09,1.09l0,0c-0.794,0-1.437,0.643-1.437,1.437l0,0l0,0c0,0.794,0.643,1.437,1.437,1.437c0,0,0,0,0,0l0,0
			c0.602,0,1.09,0.488,1.09,1.09l0,0c0,0.794,0.643,1.437,1.437,1.437c0,0,0,0,0,0l0,0c0.794,0,1.437-0.643,1.437-1.437l0,0l0,0
			c0-0.602,0.488-1.09,1.09-1.09l0,0c0.794,0,1.437-0.643,1.437-1.437l0,0l0,0C251.909,345.502,251.266,344.859,250.473,344.858z"/>
		<path fill="#FFFFFF" d="M197.443,329.49L197.443,329.49c-0.359-0.001-0.649-0.291-0.649-0.65l0,0c0-0.473-0.383-0.856-0.856-0.856
			l0,0c-0.473,0-0.856,0.383-0.856,0.856l0,0c0,0.359-0.29,0.649-0.649,0.65l0,0c-0.473,0-0.856,0.383-0.856,0.856l0,0
			c0,0.473,0.383,0.856,0.856,0.856l0,0c0.358,0,0.649,0.291,0.649,0.649l0,0c0,0.473,0.383,0.856,0.856,0.856l0,0
			c0.473,0,0.856-0.383,0.856-0.856l0,0c0-0.358,0.291-0.649,0.649-0.649l0,0c0.473,0,0.856-0.383,0.856-0.856l0,0
			C198.299,329.873,197.916,329.49,197.443,329.49z"/>
		<path fill="#FFFFFF" d="M377.073,262.652L377.073,262.652c-0.526,0-0.953-0.427-0.953-0.953l0,0l0,0
			c0-0.694-0.563-1.257-1.257-1.257l0,0c-0.694,0.001-1.256,0.563-1.256,1.257l0,0c0,0.526-0.427,0.953-0.953,0.953l0,0l0,0
			c-0.694-0.001-1.256,0.561-1.257,1.255c0,0,0,0.001,0,0.001l0,0c0,0.694,0.562,1.256,1.256,1.256c0,0,0.001,0,0.001,0l0,0
			c0.526,0.001,0.953,0.428,0.953,0.954l0,0c0.001,0.693,0.563,1.255,1.256,1.256l0,0c0.694,0,1.256-0.562,1.257-1.256l0,0
			c0-0.526,0.427-0.953,0.953-0.954l0,0c0.694,0,1.256-0.562,1.256-1.256v0l0,0C378.329,263.214,377.767,262.652,377.073,262.652
			L377.073,262.652z"/>
		<path opacity="0.49" fill="#FFFFFF" enable-background="new    " d="M268.217,266.118L268.217,266.118
			c-0.526-0.001-0.953-0.428-0.953-0.954l0,0c0-0.694-0.562-1.256-1.256-1.256h0l0,0c-0.694,0-1.256,0.562-1.257,1.256l0,0
			c0.001,0.526-0.426,0.953-0.952,0.954c0,0-0.001,0-0.001,0l0,0c-0.694,0-1.256,0.562-1.256,1.256v0l0,0
			c0,0.694,0.562,1.256,1.256,1.256h0l0,0c0.526,0,0.953,0.427,0.953,0.953l0,0l0,0c0,0.694,0.563,1.257,1.257,1.257l0,0
			c0.694,0,1.256-0.562,1.256-1.256c0,0,0-0.001,0-0.001l0,0c0-0.526,0.427-0.953,0.953-0.953l0,0l0,0
			c0.694,0.001,1.256-0.561,1.257-1.255c0,0,0-0.001,0-0.001l0,0c0-0.694-0.562-1.256-1.256-1.256
			C268.218,266.118,268.217,266.118,268.217,266.118z"/>
		<path fill="#FFFFFF" d="M233.548,270.659c0-0.041,0.006-0.081,0.006-0.121c0.006-7.904-6.396-14.316-14.299-14.323
			c-2.451-0.002-4.862,0.626-7.001,1.823c-4.88-8.497-15.725-11.43-24.223-6.549c-5.513,3.166-8.91,9.039-8.906,15.396
			c0,0.535,0.031,1.062,0.078,1.585c-6.442,0.983-10.868,7.002-9.885,13.445c0.881,5.775,5.855,10.036,11.696,10.02h51.04
			c5.661,0,10.25-4.589,10.25-10.25v-0.9C242.3,275.706,238.574,271.396,233.548,270.659z"/>
		<path fill="#140735" d="M232.054,293.939h-51.041c-7.622,0.02-13.816-6.143-13.835-13.764c-0.016-6.15,4.041-11.569,9.946-13.286
			c-0.006-10.903,8.828-19.746,19.731-19.751c6.408-0.003,12.42,3.104,16.122,8.334c8.316-3.461,17.863,0.474,21.324,8.79
			c0.634,1.524,1.034,3.135,1.184,4.779c5.208,1.544,8.79,6.316,8.819,11.748v0.9C244.297,288.451,238.817,293.932,232.054,293.939z
			 M196.877,251.139c-8.696,0.009-15.744,7.057-15.753,15.753c0,0.422,0.022,0.87,0.069,1.41c0.092,1.05-0.646,1.991-1.687,2.152
			c-5.351,0.816-9.027,5.815-8.211,11.165c0.731,4.798,4.865,8.338,9.718,8.323h51.041c4.554-0.005,8.245-3.696,8.25-8.25v-0.9
			c-0.02-4.081-3.01-7.54-7.046-8.15c-0.982-0.144-1.71-0.986-1.71-1.979c0-0.049,0-0.158,0.008-0.207
			c-0.044-6.8-5.592-12.277-12.393-12.233c-2.078,0.013-4.12,0.553-5.933,1.568c-0.955,0.534-2.162,0.202-2.709-0.746
			c-2.813-4.88-8.011-7.893-13.644-7.909V251.139z"/>
		<defs>
			<filter id="Adobe_OpacityMaskFilter" filterUnits="userSpaceOnUse" x="219.199" y="117.407" width="165.134" height="359.46">
				<feColorMatrix type="matrix" values="1 0 0 0 0  0 1 0 0 0  0 0 1 0 0  0 0 0 1 0"/>
			</filter>
		</defs>
		<mask maskUnits="userSpaceOnUse" x="219.199" y="117.407" width="165.134" height="359.46" id="mask_1_">
			<circle fill="#FFFFFF" filter="url(#Adobe_OpacityMaskFilter)" cx="301.891" cy="338.56" r="128.905"/>
		</mask>
		<g mask="url(#mask_1_)">
			<path fill="#AF1956" d="M235.458,474.867h21.781c5.533-20.87,23.646-35.292,44.652-35.292s39.118,14.425,44.653,35.292H369.8
				l-26.7-40.959c0,0-39.672-11.5-37.217-13.3s-53.289,23.3-53.289,23.3L235.458,474.867z"/>
			<path fill="#140735" d="M369.8,476.367h-23.256c-0.68,0-1.275-0.458-1.45-1.115c-5.336-20.123-23.1-34.178-43.2-34.178
				s-37.868,14.055-43.2,34.178c-0.175,0.657-0.77,1.115-1.45,1.115h-21.786c-0.828,0-1.5-0.672-1.499-1.501
				c0-0.254,0.065-0.503,0.187-0.725l17.13-30.959c0.158-0.284,0.404-0.509,0.7-0.642c0.132-0.06,13.423-6.042,26.579-11.886
				c7.729-3.433,13.9-6.148,18.344-8.068c2.521-1.09,4.627-1.985,6.114-2.593c2.57-1.051,3.531-1.442,4.242-0.224
				c0.109,0.185,0.177,0.391,0.2,0.605c3.271,1.976,20.366,7.541,36.065,12.094c0.345,0.1,0.643,0.32,0.839,0.621l26.705,40.959
				c0.452,0.694,0.256,1.623-0.438,2.076c-0.244,0.159-0.528,0.243-0.819,0.243L369.8,476.367z M347.685,473.367h19.346
				l-24.888-38.174c-27.271-7.922-34.8-11.23-36.946-12.851c-5.771,2.255-32.965,14.369-51.537,22.729L238,473.367h18.1
				c6.036-20.838,24.707-35.293,45.793-35.293S341.647,452.529,347.685,473.367z"/>
			<path fill="#FB2276" d="M312.462,172.5h-21.387c0,120.565,3.734,200.913-69.873,302.364H249
				c5.634-24.812,27.169-43.292,52.9-43.292s47.261,18.48,52.895,43.292h27.549C308.728,373.416,312.462,293.068,312.462,172.5z
				 M286.075,393.168c13.515-44.4,15.21-107.468,15.816-140.957c0.606,33.489,2.3,96.561,15.816,140.957H286.075z"/>
			<g>
				<path fill="#FB2276" d="M303.364,251.31c-0.3,16.565,3.658,41.272,1.527,66.473c2.178,25.746,5.986,52.949,12.816,75.385h6
					C310.193,348.772,303.97,284.8,303.364,251.31z"/>
				<path fill="#FB2276" d="M297.075,172.5h-6c0,120.565,3.734,200.913-69.873,302.364h6
					C300.809,373.416,297.075,293.068,297.075,172.5z"/>
				<path fill="#FB2276" d="M307.891,431.575c-1.007,0-2.006,0.038-3,0.094c24.386,1.373,44.482,19.358,49.895,43.2h6
					C355.152,450.055,333.617,431.575,307.891,431.575z"/>
				<path fill="#FB2276" d="M327.227,409.518c0,0,10.112,28.969,14.2,35.992c-4.665,1.214-5.094-0.54-5.094-0.54l-4.111-8.859
					l-9.391-26.593H327.227z"/>
			</g>
			<path fill="#140735" d="M267.435,445.908c-1.105-0.001-1.999-0.897-1.998-2.002c0-0.319,0.077-0.633,0.223-0.916
				c6.381-12.35,12.78-33.825,12.844-34.04c0.314-1.059,1.427-1.663,2.486-1.349c1.059,0.314,1.663,1.427,1.35,2.486l0,0
				c-0.266,0.894-6.57,22.05-13.127,34.739C268.869,445.491,268.183,445.908,267.435,445.908z"/>
			<path fill="#140735" d="M335.813,445.908c-0.748,0-1.434-0.417-1.778-1.082c-6.556-12.689-12.861-33.845-13.127-34.739
				c-0.314-1.059,0.29-2.173,1.35-2.486c1.059-0.314,2.173,0.29,2.486,1.349l0,0c0.064,0.215,6.463,21.69,12.844,34.04
				c0.507,0.981,0.122,2.188-0.859,2.695C336.446,445.831,336.132,445.908,335.813,445.908L335.813,445.908z"/>
			<path fill="#140735" d="M317.707,394.667h-31.632c-0.828-0.001-1.5-0.673-1.499-1.501c0-0.148,0.022-0.295,0.065-0.436
				c12.447-40.889,14.955-96.589,15.75-140.546c0-0.828,0.672-1.5,1.5-1.5s1.5,0.672,1.5,1.5c0.8,43.96,3.305,99.663,15.751,140.546
				c0.241,0.792-0.205,1.631-0.998,1.872C318.002,394.645,317.855,394.667,317.707,394.667L317.707,394.667z M288.089,391.667h27.6
				c-8.241-28.059-12-62.6-13.8-95.543C300.088,329.061,296.331,363.6,288.089,391.667z"/>
			<g opacity="0.2">
				<path fill="#140735" d="M375.693,464.408h-28.788c-0.276,0-0.5-0.224-0.5-0.5s0.224-0.5,0.5-0.5h28.788
					c0.276,0,0.5,0.224,0.5,0.5S375.969,464.408,375.693,464.408z"/>
				<path fill="#140735" d="M256.633,464.408H228.9c-0.276,0-0.5-0.224-0.5-0.5s0.224-0.5,0.5-0.5h27.738c0.276,0,0.5,0.224,0.5,0.5
					s-0.224,0.5-0.5,0.5H256.633z"/>
				<path fill="#140735" d="M368.324,454.408H343.1c-0.276,0-0.5-0.224-0.5-0.5s0.224-0.5,0.5-0.5h25.229c0.276,0,0.5,0.224,0.5,0.5
					s-0.224,0.5-0.5,0.5H368.324z"/>
				<path fill="#140735" d="M260.435,454.408h-24.978c-0.276,0-0.5-0.224-0.5-0.5s0.224-0.5,0.5-0.5h24.978
					c0.276,0,0.5,0.224,0.5,0.5S260.711,454.408,260.435,454.408z"/>
				<path fill="#140735" d="M361.942,444.408H336.1c-0.276,0-0.5-0.224-0.5-0.5s0.224-0.5,0.5-0.5h25.838c0.276,0,0.5,0.224,0.5,0.5
					s-0.224,0.5-0.5,0.5H361.942z"/>
				<path fill="#140735" d="M267.437,444.408h-25.848c-0.276,0-0.5-0.224-0.5-0.5s0.224-0.5,0.5-0.5h25.848
					c0.276,0,0.5,0.224,0.5,0.5S267.713,444.408,267.437,444.408z"/>
				<path fill="#140735" d="M356.237,434.408H316.42c-0.276,0-0.5-0.224-0.5-0.5s0.224-0.5,0.5-0.5h39.817
					c0.276,0,0.5,0.224,0.5,0.5S356.513,434.408,356.237,434.408z"/>
				<path fill="#140735" d="M286.075,434.408H247.3c-0.276,0-0.5-0.224-0.5-0.5s0.224-0.5,0.5-0.5h38.775c0.276,0,0.5,0.224,0.5,0.5
					S286.351,434.408,286.075,434.408z"/>
				<path fill="#140735" d="M350.464,424.408h-97.875c-0.276,0-0.5-0.224-0.5-0.5s0.224-0.5,0.5-0.5h97.875
					c0.276,0,0.5,0.224,0.5,0.5S350.74,424.408,350.464,424.408z"/>
				<path fill="#140735" d="M345.883,414.408h-88.229c-0.276,0-0.5-0.224-0.5-0.5s0.224-0.5,0.5-0.5h88.229
					c0.276,0,0.5,0.224,0.5,0.5S346.159,414.408,345.883,414.408z"/>
				<path fill="#140735" d="M341.422,404.408h-79.534c-0.276,0-0.5-0.224-0.5-0.5s0.224-0.5,0.5-0.5h79.534
					c0.276,0,0.5,0.224,0.5,0.5S341.698,404.408,341.422,404.408z"/>
				<path fill="#140735" d="M337.339,394.408h-71.331c-0.276,0-0.5-0.224-0.5-0.5s0.224-0.5,0.5-0.5h71.331
					c0.276,0,0.5,0.224,0.5,0.5S337.615,394.408,337.339,394.408z"/>
				<path fill="#140735" d="M333.939,384.408h-18.818c-0.276,0-0.5-0.224-0.5-0.5s0.224-0.5,0.5-0.5h18.818
					c0.276,0,0.5,0.224,0.5,0.5S334.215,384.408,333.939,384.408z"/>
				<path fill="#140735" d="M288.66,384.408h-19.2c-0.276,0-0.5-0.224-0.5-0.5s0.224-0.5,0.5-0.5h19.2c0.276,0,0.5,0.224,0.5,0.5
					S288.936,384.408,288.66,384.408z"/>
				<path fill="#140735" d="M330.648,374.408h-17.876c-0.276,0-0.5-0.224-0.5-0.5s0.224-0.5,0.5-0.5h17.876
					c0.276,0,0.5,0.224,0.5,0.5S330.924,374.408,330.648,374.408z"/>
				<path fill="#140735" d="M291.01,374.408h-18.171c-0.276,0-0.5-0.224-0.5-0.5s0.224-0.5,0.5-0.5h18.171
					c0.276,0,0.5,0.224,0.5,0.5S291.286,374.408,291.01,374.408z"/>
				<path fill="#140735" d="M327.227,364.408h-16.2c-0.276,0-0.5-0.224-0.5-0.5s0.224-0.5,0.5-0.5h16.2c0.276,0,0.5,0.224,0.5,0.5
					S327.503,364.408,327.227,364.408z"/>
				<path fill="#140735" d="M292.991,364.408h-17.169c-0.276,0-0.5-0.224-0.5-0.5s0.224-0.5,0.5-0.5h17.169
					c0.276,0,0.5,0.224,0.5,0.5S293.267,364.408,292.991,364.408z"/>
				<path fill="#140735" d="M325.119,354.408h-15.688c-0.276,0-0.5-0.224-0.5-0.5s0.224-0.5,0.5-0.5h15.688
					c0.276,0,0.5,0.224,0.5,0.5S325.395,354.408,325.119,354.408z"/>
				<path fill="#140735" d="M294.674,354.408h-16.61c-0.276,0-0.5-0.224-0.5-0.5s0.224-0.5,0.5-0.5h16.61c0.276,0,0.5,0.224,0.5,0.5
					S294.95,354.408,294.674,354.408z"/>
				<path fill="#140735" d="M321.826,334.408h-39.487c-0.276,0-0.5-0.224-0.5-0.5s0.224-0.5,0.5-0.5h39.487
					c0.276,0,0.5,0.224,0.5,0.5S322.102,334.408,321.826,334.408z"/>
				<path fill="#140735" d="M317.707,324.408h-12.035c-0.276,0-0.5-0.224-0.5-0.5s0.224-0.5,0.5-0.5h12.035
					c0.276,0,0.5,0.224,0.5,0.5S317.983,324.408,317.707,324.408z"/>
				<path fill="#140735" d="M298.345,324.408h-13.964c-0.276,0-0.5-0.224-0.5-0.5s0.224-0.5,0.5-0.5h13.964
					c0.276,0,0.5,0.224,0.5,0.5S298.621,324.408,298.345,324.408z"/>
				<path fill="#140735" d="M317.707,314.408h-13.133c-0.276,0-0.5-0.224-0.5-0.5s0.224-0.5,0.5-0.5h13.133
					c0.276,0,0.5,0.224,0.5,0.5S317.983,314.408,317.707,314.408z"/>
				<path fill="#140735" d="M299.131,314.408h-13.056c-0.276,0-0.5-0.224-0.5-0.5s0.224-0.5,0.5-0.5h13.056
					c0.276,0,0.5,0.224,0.5,0.5S299.407,314.408,299.131,314.408z"/>
				<path fill="#140735" d="M316.514,304.408h-12.659c-0.276,0-0.5-0.224-0.5-0.5s0.224-0.5,0.5-0.5h12.659
					c0.276,0,0.5,0.224,0.5,0.5S316.79,304.408,316.514,304.408z"/>
				<path fill="#140735" d="M299.926,304.408H287.05c-0.276,0-0.5-0.224-0.5-0.5s0.224-0.5,0.5-0.5h12.876
					c0.276,0,0.5,0.224,0.5,0.5S300.202,304.408,299.926,304.408z"/>
				<path fill="#140735" d="M315.479,294.408h-12.115c-0.276,0-0.5-0.224-0.5-0.5s0.224-0.5,0.5-0.5h12.115
					c0.276,0,0.5,0.224,0.5,0.5S315.755,294.408,315.479,294.408z"/>
				<path fill="#140735" d="M300.518,294.408h-12.46c-0.276,0-0.5-0.224-0.5-0.5s0.224-0.5,0.5-0.5h12.46c0.276,0,0.5,0.224,0.5,0.5
					S300.794,294.408,300.518,294.408z"/>
				<path fill="#140735" d="M314.67,284.408h-11.664c-0.276,0-0.5-0.224-0.5-0.5s0.224-0.5,0.5-0.5h11.664
					c0.276,0,0.5,0.224,0.5,0.5S314.946,284.408,314.67,284.408z"/>
				<path fill="#140735" d="M300.672,284.408h-11.793c-0.276,0-0.5-0.224-0.5-0.5s0.224-0.5,0.5-0.5h11.793
					c0.276,0,0.5,0.224,0.5,0.5S300.948,284.408,300.672,284.408z"/>
				<path fill="#140735" d="M314,274.408h-24.07c-0.276,0-0.5-0.224-0.5-0.5s0.224-0.5,0.5-0.5H314c0.276,0,0.5,0.224,0.5,0.5
					S314.276,274.408,314,274.408z"/>
				<path fill="#140735" d="M313.5,264.408h-23.57c-0.276,0-0.5-0.224-0.5-0.5s0.224-0.5,0.5-0.5h23.57c0.276,0,0.5,0.224,0.5,0.5
					S313.776,264.408,313.5,264.408z"/>
				<path fill="#140735" d="M313.111,254.408h-22.685c-0.276,0-0.5-0.224-0.5-0.5s0.224-0.5,0.5-0.5h22.685
					c0.276,0,0.5,0.224,0.5,0.5S313.387,254.408,313.111,254.408z"/>
				<path fill="#140735" d="M312.922,244.408H290.7c-0.276,0-0.5-0.224-0.5-0.5s0.224-0.5,0.5-0.5h22.219c0.276,0,0.5,0.224,0.5,0.5
					s-0.224,0.5-0.5,0.5H312.922z"/>
				<path fill="#140735" d="M312.922,234.408h-22.028c-0.276,0-0.5-0.224-0.5-0.5s0.224-0.5,0.5-0.5h22.028
					c0.276,0,0.5,0.224,0.5,0.5S313.198,234.408,312.922,234.408z"/>
				<path fill="#140735" d="M312.524,224.408h-21.63c-0.276,0-0.5-0.224-0.5-0.5s0.224-0.5,0.5-0.5h21.63c0.276,0,0.5,0.224,0.5,0.5
					S312.8,224.408,312.524,224.408z"/>
				<path fill="#140735" d="M312.433,214.408h-21.539c-0.276,0-0.5-0.224-0.5-0.5s0.224-0.5,0.5-0.5h21.539
					c0.276,0,0.5,0.224,0.5,0.5S312.709,214.408,312.433,214.408z"/>
				<path fill="#140735" d="M312.433,204.408h-21.178c-0.276,0-0.5-0.224-0.5-0.5s0.224-0.5,0.5-0.5h21.178
					c0.276,0,0.5,0.224,0.5,0.5S312.709,204.408,312.433,204.408z"/>
				<path fill="#140735" d="M312.433,200.408h-21.011c-0.276,0-0.5-0.224-0.5-0.5s0.224-0.5,0.5-0.5h21.011
					c0.276,0,0.5,0.224,0.5,0.5S312.709,200.408,312.433,200.408L312.433,200.408z"/>
				<path fill="#140735" d="M315.717,190.408h-24.625c-0.276,0-0.5-0.224-0.5-0.5s0.224-0.5,0.5-0.5h24.625
					c0.276,0,0.5,0.224,0.5,0.5S315.993,190.408,315.717,190.408z"/>
			</g>
			<path fill="#140735" d="M317.707,395.167h-31.632c-1.105,0-2-0.896-2-2c0-0.197,0.029-0.393,0.087-0.582
				c12.429-40.83,14.935-96.485,15.729-140.41c0-1.105,0.895-2,2-2s2,0.895,2,2c0.795,43.928,3.3,99.585,15.729,140.41
				c0.321,1.057-0.275,2.174-1.331,2.495C318.1,395.138,317.904,395.167,317.707,395.167L317.707,395.167z M288.756,391.167h26.27
				c-7.433-25.612-11.179-56.522-13.134-86.66C299.937,334.644,296.19,365.552,288.756,391.167z"/>
			<path fill="#140735" d="M382.335,476.867h-27.55c-0.934,0-1.743-0.646-1.95-1.557c-5.579-24.574-26.527-41.736-50.944-41.736
				s-45.365,17.162-50.945,41.736c-0.207,0.911-1.016,1.557-1.95,1.557H221.2c-1.105,0-2-0.895-2.001-1.999
				c0-0.422,0.133-0.834,0.382-1.176c32.243-44.44,51.618-87.822,60.973-136.524c8.685-45.218,8.616-92.855,8.535-148.015
				c-0.009-5.467-0.015-11.017-0.017-16.65c0-1.105,0.895-2,2-2h21.388c1.105,0,2,0.895,2,2c0,5.635-0.006,11.184-0.017,16.646
				c-0.081,55.161-0.15,102.8,8.535,148.018c9.355,48.7,28.73,92.084,60.974,136.525c0.649,0.894,0.45,2.145-0.443,2.793
				c-0.342,0.248-0.753,0.382-1.176,0.382L382.335,476.867z M356.36,472.867h22.074c-31.236-43.83-50.135-86.808-59.382-134.946
				c-8.758-45.595-8.688-93.411-8.607-148.777c0.008-4.816,0.014-9.696,0.017-14.641h-17.388c0,4.948,0.006,9.829,0.017,14.644
				c0.081,55.366,0.151,103.181-8.607,148.775c-9.246,48.138-28.145,91.116-59.38,134.945h22.317
				c6.514-25.572,28.693-43.293,54.47-43.293S349.848,447.3,356.36,472.867z"/>
			<rect x="254.094" y="403.085" fill="#00B5E2" width="95.35" height="6.434"/>
			<rect x="344.796" y="403.085" fill="#FFFFFF" width="4.647" height="6.434"/>
			<rect x="258.143" y="390.423" fill="#00B5E2" width="87.251" height="12.662"/>
			<rect x="341.422" y="390.423" fill="#FFFFFF" width="3.972" height="12.662"/>
			<path fill="#140735" d="M349.443,411.519h-95.349c-1.105,0-2-0.895-2-2v-6.434c0-1.105,0.895-2,2-2h95.349c1.105,0,2,0.895,2,2
				v6.434C351.443,410.624,350.548,411.519,349.443,411.519z M256.094,407.519h91.349v-2.434h-91.349V407.519z"/>
			<path fill="#140735" d="M345.394,405.085h-87.25c-1.105,0-2-0.895-2-2v-12.662c0-1.105,0.895-2,2-2h87.25c1.105,0,2,0.895,2,2
				v12.662C347.394,404.19,346.499,405.085,345.394,405.085z M260.144,401.085h83.25v-8.662h-83.25V401.085z"/>
			<path fill="#140735" d="M266.008,399.559c-0.552,0-1-0.448-1-1v-3.3c0-0.552,0.448-1,1-1s1,0.448,1,1v3.3
				C267.008,399.111,266.56,399.559,266.008,399.559z"/>
			<path fill="#140735" d="M337.774,399.559c-0.552,0-1-0.448-1-1v-3.3c0-0.552,0.448-1,1-1s1,0.448,1,1v3.3
				C338.774,399.111,338.326,399.559,337.774,399.559z"/>
			<path fill="#140735" d="M329.8,399.559c-0.552,0-1-0.448-1-1v-3.3c0-0.552,0.448-1,1-1s1,0.448,1,1v3.3
				C330.8,399.111,330.352,399.559,329.8,399.559z"/>
			<path fill="#140735" d="M321.826,399.559c-0.552,0-1-0.448-1-1v-3.3c0-0.552,0.448-1,1-1s1,0.448,1,1v3.3
				C322.826,399.111,322.378,399.559,321.826,399.559z"/>
			<path fill="#140735" d="M313.852,399.559c-0.552,0-1-0.448-1-1v-3.3c0-0.552,0.448-1,1-1s1,0.448,1,1v3.3
				C314.852,399.111,314.404,399.559,313.852,399.559z"/>
			<path fill="#140735" d="M305.878,399.559c-0.552,0-1-0.448-1-1v-3.3c0-0.552,0.448-1,1-1s1,0.448,1,1v3.3
				C306.878,399.111,306.43,399.559,305.878,399.559z"/>
			<path fill="#140735" d="M297.9,399.559c-0.552,0-1-0.448-1-1v-3.3c0-0.552,0.448-1,1-1s1,0.448,1,1v3.3
				C298.9,399.111,298.452,399.559,297.9,399.559z"/>
			<path fill="#140735" d="M289.93,399.559c-0.552,0-1-0.448-1-1v-3.3c0-0.552,0.448-1,1-1s1,0.448,1,1v3.3
				C290.93,399.111,290.482,399.559,289.93,399.559z"/>
			<path fill="#140735" d="M281.956,399.559c-0.552,0-1-0.448-1-1v-3.3c0-0.552,0.448-1,1-1s1,0.448,1,1v3.3
				C282.956,399.111,282.508,399.559,281.956,399.559z"/>
			<path fill="#140735" d="M273.981,399.559c-0.552,0-1-0.448-1-1v-3.3c0-0.552,0.448-1,1-1s1,0.448,1,1v3.3
				C274.981,399.111,274.533,399.559,273.981,399.559z"/>
			<polygon fill="#00B5E2" points="321.698,341.075 281.839,341.075 279.755,334.131 323.782,334.131 			"/>
			<polygon fill="#FFFFFF" points="320.169,334.131 318.255,341.075 321.868,341.075 323.782,334.131 			"/>
			<path fill="#140735" d="M321.7,343.075h-39.861c-0.884,0-1.662-0.58-1.916-1.426l-2.084-6.943
				c-0.318-1.058,0.283-2.173,1.341-2.491c0.187-0.056,0.381-0.084,0.575-0.084h44.027c1.105,0,2,0.895,2,2
				c0,0.195-0.028,0.389-0.084,0.575l-2.084,6.943C323.361,342.495,322.583,343.074,321.7,343.075z M283.329,339.075h36.881
				l0.884-2.944h-38.651L283.329,339.075z"/>
			<rect x="276.31" y="326.56" fill="#00B5E2" width="50.916" height="7.571"/>
			<rect x="276.31" y="326.56" fill="#00B5E2" width="50.916" height="7.571"/>
			<rect x="323.478" y="326.56" fill="#FFFFFF" width="3.749" height="7.571"/>
			<path fill="#140735" d="M327.227,336.131h-50.916c-1.105,0-2-0.895-2-2v-7.571c0-1.105,0.895-2,2-2h50.916c1.105,0,2,0.895,2,2
				v7.571C329.227,335.236,328.332,336.131,327.227,336.131z M278.311,332.131h46.916v-3.571h-46.916L278.311,332.131z"/>
			<path fill="#140735" d="M301.967,254.211c-1.105,0-2-0.895-2-2V172.5c0-1.105,0.895-2,2-2s2,0.895,2,2v79.708
				c0.002,1.105-0.892,2.001-1.997,2.003C301.969,254.211,301.968,254.211,301.967,254.211z"/>
			<rect x="298.491" y="143.347" fill="#FB2276" width="6.801" height="30.557"/>
			<rect x="302.819" y="143.347" fill="#FFFFFF" width="2.472" height="30.557"/>
			<path fill="#140735" d="M305.291,175.9h-6.8c-1.105,0-2-0.895-2-2v-27.153c0.005-2.982,2.426-5.396,5.408-5.392
				c2.976,0.005,5.387,2.416,5.392,5.392V173.9C307.291,175.005,306.396,175.9,305.291,175.9z M300.491,171.9h2.8v-25.153
				c-0.002-0.773-0.631-1.398-1.404-1.396c-0.77,0.002-1.394,0.626-1.396,1.396V171.9z"/>
			<path fill="#140735" d="M301.766,145.347c-1.105,0-2-0.895-2-2v-23.94c0-1.105,0.895-2,2-2s2,0.895,2,2v23.94
				C303.766,144.452,302.871,145.347,301.766,145.347z"/>
			<circle fill="#00B5E2" cx="301.891" cy="171.007" r="13.402"/>
			<path fill="#FFFFFF" d="M301.891,157.6c-0.751,0.004-1.5,0.071-2.24,0.2c7.29,1.228,12.204,8.134,10.976,15.424
				c-0.947,5.623-5.353,10.029-10.976,10.976c7.29,1.273,14.232-3.604,15.506-10.895c1.273-7.29-3.604-14.232-10.895-15.506
				C303.479,157.663,302.686,157.596,301.891,157.6L301.891,157.6z"/>
			<path fill="#140735" d="M301.891,185.91c-8.229,0-14.9-6.671-14.9-14.9s6.671-14.9,14.9-14.9c8.229,0,14.9,6.671,14.9,14.9v0
				C316.781,179.235,310.116,185.9,301.891,185.91z M301.891,159.105c-6.572,0-11.9,5.328-11.9,11.9s5.328,11.9,11.9,11.9
				c6.572,0,11.9-5.328,11.9-11.9c0,0,0,0,0,0c-0.006-6.57-5.329-11.896-11.9-11.905V159.105z"/>
			<polygon fill="#00B5E2" points="285.949,172.236 287.813,178.967 287.813,192.121 315.717,192.121 315.717,178.967 
				317.581,172.236 			"/>
			<polygon fill="#FFFFFF" points="314.306,172.236 312.442,178.967 312.442,192.121 315.717,192.121 315.717,178.967 
				317.581,172.236 			"/>
			<path fill="#140735" d="M315.717,194.121h-27.9c-1.105,0-2-0.895-2-2v-12.882l-1.792-6.469c-0.295-1.064,0.329-2.166,1.393-2.461
				c0.174-0.048,0.354-0.073,0.535-0.073h31.632c1.105,0,2,0.895,2.001,1.999c0,0.181-0.024,0.361-0.073,0.535l-1.792,6.469v12.882
				c0,1.105-0.895,2-2,2C315.72,194.121,315.718,194.121,315.717,194.121z M289.817,190.121h23.9v-11.154
				c0-0.18,0.024-0.36,0.072-0.534l1.163-4.2h-26.374l1.163,4.2c0.048,0.174,0.072,0.354,0.072,0.534L289.817,190.121z"/>
			<path fill="#140735" d="M297.41,193.621c-0.828,0-1.5-0.672-1.5-1.5v-7.711c0-0.828,0.672-1.5,1.5-1.5s1.5,0.672,1.5,1.5v7.711
				C298.91,192.949,298.238,193.621,297.41,193.621z"/>
			<path fill="#140735" d="M306.12,193.621c-0.828,0-1.5-0.672-1.5-1.5v-7.711c0-0.828,0.672-1.5,1.5-1.5s1.5,0.672,1.5,1.5v7.711
				C307.62,192.949,306.948,193.621,306.12,193.621z"/>
			<rect x="285.949" y="165.018" fill="#00B5E2" width="31.632" height="7.218"/>
			<rect x="314.404" y="165.018" fill="#FFFFFF" width="3.177" height="7.218"/>
			<path fill="#140735" d="M317.581,174.236h-31.632c-1.105,0-2-0.895-2-2v-7.217c0-1.105,0.895-2,2-2h31.632c1.105,0,2,0.895,2,2
				v7.217C319.581,173.341,318.686,174.236,317.581,174.236z M287.949,170.236h27.632v-3.217h-27.632V170.236z"/>
		</g>
		<defs>
			<filter id="Adobe_OpacityMaskFilter_1_" filterUnits="userSpaceOnUse" x="219.199" y="117.407" width="165.134" height="359.46">
				<feColorMatrix type="matrix" values="1 0 0 0 0  0 1 0 0 0  0 0 1 0 0  0 0 0 1 0"/>
			</filter>
		</defs>
		<mask maskUnits="userSpaceOnUse" x="219.199" y="117.407" width="165.134" height="359.46" id="mask-2_1_">
			<rect x="273.982" y="98.634" fill="#FFFFFF" filter="url(#Adobe_OpacityMaskFilter_1_)" width="56.667" height="143.789"/>
		</mask>
		<g mask="url(#mask-2_1_)">
			<path fill="#AF1956" d="M235.458,474.867h21.781c5.533-20.87,23.646-35.292,44.652-35.292s39.118,14.425,44.653,35.292H369.8
				l-26.7-40.959c0,0-39.672-11.5-37.217-13.3s-53.289,23.3-53.289,23.3L235.458,474.867z"/>
			<path fill="#140735" d="M369.8,476.367h-23.256c-0.68,0-1.275-0.458-1.45-1.115c-5.336-20.123-23.1-34.178-43.2-34.178
				s-37.868,14.055-43.2,34.178c-0.175,0.657-0.77,1.115-1.45,1.115h-21.786c-0.828,0-1.5-0.672-1.499-1.501
				c0-0.254,0.065-0.503,0.187-0.725l17.13-30.959c0.158-0.284,0.404-0.509,0.7-0.642c0.132-0.06,13.423-6.042,26.579-11.886
				c7.729-3.433,13.9-6.148,18.344-8.068c2.521-1.09,4.627-1.985,6.114-2.593c2.57-1.051,3.531-1.442,4.242-0.224
				c0.109,0.185,0.177,0.391,0.2,0.605c3.271,1.976,20.366,7.541,36.065,12.094c0.345,0.1,0.643,0.32,0.839,0.621l26.705,40.959
				c0.452,0.694,0.256,1.623-0.438,2.076c-0.244,0.159-0.528,0.243-0.819,0.243L369.8,476.367z M347.685,473.367h19.346
				l-24.888-38.174c-27.271-7.922-34.8-11.23-36.946-12.851c-5.771,2.255-32.965,14.369-51.537,22.729L238,473.367h18.1
				c6.036-20.838,24.707-35.293,45.793-35.293S341.647,452.529,347.685,473.367z"/>
			<path fill="#FB2276" d="M312.462,172.5h-21.387c0,120.565,3.734,200.913-69.873,302.364H249
				c5.634-24.812,27.169-43.292,52.9-43.292s47.261,18.48,52.895,43.292h27.549C308.728,373.416,312.462,293.068,312.462,172.5z
				 M286.075,393.168c13.515-44.4,15.21-107.468,15.816-140.957c0.606,33.489,2.3,96.561,15.816,140.957H286.075z"/>
			<g>
				<path fill="#FB2276" d="M303.364,251.31c-0.3,16.565,3.658,41.272,1.527,66.473c2.178,25.746,5.986,52.949,12.816,75.385h6
					C310.193,348.772,303.97,284.8,303.364,251.31z"/>
				<path fill="#FB2276" d="M297.075,172.5h-6c0,120.565,3.734,200.913-69.873,302.364h6
					C300.809,373.416,297.075,293.068,297.075,172.5z"/>
				<path fill="#FB2276" d="M307.891,431.575c-1.007,0-2.006,0.038-3,0.094c24.386,1.373,44.482,19.358,49.895,43.2h6
					C355.152,450.055,333.617,431.575,307.891,431.575z"/>
				<path fill="#FB2276" d="M327.227,409.518c0,0,10.112,28.969,14.2,35.992c-4.665,1.214-5.094-0.54-5.094-0.54l-4.111-8.859
					l-9.391-26.593H327.227z"/>
			</g>
			<path fill="#140735" d="M267.435,445.908c-1.105-0.001-1.999-0.897-1.998-2.002c0-0.319,0.077-0.633,0.223-0.916
				c6.381-12.35,12.78-33.825,12.844-34.04c0.314-1.059,1.427-1.663,2.486-1.349c1.059,0.314,1.663,1.427,1.35,2.486l0,0
				c-0.266,0.894-6.57,22.05-13.127,34.739C268.869,445.491,268.183,445.908,267.435,445.908z"/>
			<path fill="#140735" d="M335.813,445.908c-0.748,0-1.434-0.417-1.778-1.082c-6.556-12.689-12.861-33.845-13.127-34.739
				c-0.314-1.059,0.29-2.173,1.35-2.486c1.059-0.314,2.173,0.29,2.486,1.349l0,0c0.064,0.215,6.463,21.69,12.844,34.04
				c0.507,0.981,0.122,2.188-0.859,2.695C336.446,445.831,336.132,445.908,335.813,445.908L335.813,445.908z"/>
			<path fill="#140735" d="M317.707,394.667h-31.632c-0.828-0.001-1.5-0.673-1.499-1.501c0-0.148,0.022-0.295,0.065-0.436
				c12.447-40.889,14.955-96.589,15.75-140.546c0-0.828,0.672-1.5,1.5-1.5s1.5,0.672,1.5,1.5c0.8,43.96,3.305,99.663,15.751,140.546
				c0.241,0.792-0.205,1.631-0.998,1.872C318.002,394.645,317.855,394.667,317.707,394.667L317.707,394.667z M288.089,391.667h27.6
				c-8.241-28.059-12-62.6-13.8-95.543C300.088,329.061,296.331,363.6,288.089,391.667z"/>
			<g opacity="0.2">
				<path fill="#140735" d="M375.693,464.408h-28.788c-0.276,0-0.5-0.224-0.5-0.5s0.224-0.5,0.5-0.5h28.788
					c0.276,0,0.5,0.224,0.5,0.5S375.969,464.408,375.693,464.408z"/>
				<path fill="#140735" d="M256.633,464.408H228.9c-0.276,0-0.5-0.224-0.5-0.5s0.224-0.5,0.5-0.5h27.738c0.276,0,0.5,0.224,0.5,0.5
					s-0.224,0.5-0.5,0.5H256.633z"/>
				<path fill="#140735" d="M368.324,454.408H343.1c-0.276,0-0.5-0.224-0.5-0.5s0.224-0.5,0.5-0.5h25.229c0.276,0,0.5,0.224,0.5,0.5
					s-0.224,0.5-0.5,0.5H368.324z"/>
				<path fill="#140735" d="M260.435,454.408h-24.978c-0.276,0-0.5-0.224-0.5-0.5s0.224-0.5,0.5-0.5h24.978
					c0.276,0,0.5,0.224,0.5,0.5S260.711,454.408,260.435,454.408z"/>
				<path fill="#140735" d="M361.942,444.408H336.1c-0.276,0-0.5-0.224-0.5-0.5s0.224-0.5,0.5-0.5h25.838c0.276,0,0.5,0.224,0.5,0.5
					s-0.224,0.5-0.5,0.5H361.942z"/>
				<path fill="#140735" d="M267.437,444.408h-25.848c-0.276,0-0.5-0.224-0.5-0.5s0.224-0.5,0.5-0.5h25.848
					c0.276,0,0.5,0.224,0.5,0.5S267.713,444.408,267.437,444.408z"/>
				<path fill="#140735" d="M356.237,434.408H316.42c-0.276,0-0.5-0.224-0.5-0.5s0.224-0.5,0.5-0.5h39.817
					c0.276,0,0.5,0.224,0.5,0.5S356.513,434.408,356.237,434.408z"/>
				<path fill="#140735" d="M286.075,434.408H247.3c-0.276,0-0.5-0.224-0.5-0.5s0.224-0.5,0.5-0.5h38.775c0.276,0,0.5,0.224,0.5,0.5
					S286.351,434.408,286.075,434.408z"/>
				<path fill="#140735" d="M350.464,424.408h-97.875c-0.276,0-0.5-0.224-0.5-0.5s0.224-0.5,0.5-0.5h97.875
					c0.276,0,0.5,0.224,0.5,0.5S350.74,424.408,350.464,424.408z"/>
				<path fill="#140735" d="M345.883,414.408h-88.229c-0.276,0-0.5-0.224-0.5-0.5s0.224-0.5,0.5-0.5h88.229
					c0.276,0,0.5,0.224,0.5,0.5S346.159,414.408,345.883,414.408z"/>
				<path fill="#140735" d="M341.422,404.408h-79.534c-0.276,0-0.5-0.224-0.5-0.5s0.224-0.5,0.5-0.5h79.534
					c0.276,0,0.5,0.224,0.5,0.5S341.698,404.408,341.422,404.408z"/>
				<path fill="#140735" d="M337.339,394.408h-71.331c-0.276,0-0.5-0.224-0.5-0.5s0.224-0.5,0.5-0.5h71.331
					c0.276,0,0.5,0.224,0.5,0.5S337.615,394.408,337.339,394.408z"/>
				<path fill="#140735" d="M333.939,384.408h-18.818c-0.276,0-0.5-0.224-0.5-0.5s0.224-0.5,0.5-0.5h18.818
					c0.276,0,0.5,0.224,0.5,0.5S334.215,384.408,333.939,384.408z"/>
				<path fill="#140735" d="M288.66,384.408h-19.2c-0.276,0-0.5-0.224-0.5-0.5s0.224-0.5,0.5-0.5h19.2c0.276,0,0.5,0.224,0.5,0.5
					S288.936,384.408,288.66,384.408z"/>
				<path fill="#140735" d="M330.648,374.408h-17.876c-0.276,0-0.5-0.224-0.5-0.5s0.224-0.5,0.5-0.5h17.876
					c0.276,0,0.5,0.224,0.5,0.5S330.924,374.408,330.648,374.408z"/>
				<path fill="#140735" d="M291.01,374.408h-18.171c-0.276,0-0.5-0.224-0.5-0.5s0.224-0.5,0.5-0.5h18.171
					c0.276,0,0.5,0.224,0.5,0.5S291.286,374.408,291.01,374.408z"/>
				<path fill="#140735" d="M327.227,364.408h-16.2c-0.276,0-0.5-0.224-0.5-0.5s0.224-0.5,0.5-0.5h16.2c0.276,0,0.5,0.224,0.5,0.5
					S327.503,364.408,327.227,364.408z"/>
				<path fill="#140735" d="M292.991,364.408h-17.169c-0.276,0-0.5-0.224-0.5-0.5s0.224-0.5,0.5-0.5h17.169
					c0.276,0,0.5,0.224,0.5,0.5S293.267,364.408,292.991,364.408z"/>
				<path fill="#140735" d="M325.119,354.408h-15.688c-0.276,0-0.5-0.224-0.5-0.5s0.224-0.5,0.5-0.5h15.688
					c0.276,0,0.5,0.224,0.5,0.5S325.395,354.408,325.119,354.408z"/>
				<path fill="#140735" d="M294.674,354.408h-16.61c-0.276,0-0.5-0.224-0.5-0.5s0.224-0.5,0.5-0.5h16.61c0.276,0,0.5,0.224,0.5,0.5
					S294.95,354.408,294.674,354.408z"/>
				<path fill="#140735" d="M321.826,334.408h-39.487c-0.276,0-0.5-0.224-0.5-0.5s0.224-0.5,0.5-0.5h39.487
					c0.276,0,0.5,0.224,0.5,0.5S322.102,334.408,321.826,334.408z"/>
				<path fill="#140735" d="M317.707,324.408h-12.035c-0.276,0-0.5-0.224-0.5-0.5s0.224-0.5,0.5-0.5h12.035
					c0.276,0,0.5,0.224,0.5,0.5S317.983,324.408,317.707,324.408z"/>
				<path fill="#140735" d="M298.345,324.408h-13.964c-0.276,0-0.5-0.224-0.5-0.5s0.224-0.5,0.5-0.5h13.964
					c0.276,0,0.5,0.224,0.5,0.5S298.621,324.408,298.345,324.408z"/>
				<path fill="#140735" d="M317.707,314.408h-13.133c-0.276,0-0.5-0.224-0.5-0.5s0.224-0.5,0.5-0.5h13.133
					c0.276,0,0.5,0.224,0.5,0.5S317.983,314.408,317.707,314.408z"/>
				<path fill="#140735" d="M299.131,314.408h-13.056c-0.276,0-0.5-0.224-0.5-0.5s0.224-0.5,0.5-0.5h13.056
					c0.276,0,0.5,0.224,0.5,0.5S299.407,314.408,299.131,314.408z"/>
				<path fill="#140735" d="M316.514,304.408h-12.659c-0.276,0-0.5-0.224-0.5-0.5s0.224-0.5,0.5-0.5h12.659
					c0.276,0,0.5,0.224,0.5,0.5S316.79,304.408,316.514,304.408z"/>
				<path fill="#140735" d="M299.926,304.408H287.05c-0.276,0-0.5-0.224-0.5-0.5s0.224-0.5,0.5-0.5h12.876
					c0.276,0,0.5,0.224,0.5,0.5S300.202,304.408,299.926,304.408z"/>
				<path fill="#140735" d="M315.479,294.408h-12.115c-0.276,0-0.5-0.224-0.5-0.5s0.224-0.5,0.5-0.5h12.115
					c0.276,0,0.5,0.224,0.5,0.5S315.755,294.408,315.479,294.408z"/>
				<path fill="#140735" d="M300.518,294.408h-12.46c-0.276,0-0.5-0.224-0.5-0.5s0.224-0.5,0.5-0.5h12.46c0.276,0,0.5,0.224,0.5,0.5
					S300.794,294.408,300.518,294.408z"/>
				<path fill="#140735" d="M314.67,284.408h-11.664c-0.276,0-0.5-0.224-0.5-0.5s0.224-0.5,0.5-0.5h11.664
					c0.276,0,0.5,0.224,0.5,0.5S314.946,284.408,314.67,284.408z"/>
				<path fill="#140735" d="M300.672,284.408h-11.793c-0.276,0-0.5-0.224-0.5-0.5s0.224-0.5,0.5-0.5h11.793
					c0.276,0,0.5,0.224,0.5,0.5S300.948,284.408,300.672,284.408z"/>
				<path fill="#140735" d="M314,274.408h-24.07c-0.276,0-0.5-0.224-0.5-0.5s0.224-0.5,0.5-0.5H314c0.276,0,0.5,0.224,0.5,0.5
					S314.276,274.408,314,274.408z"/>
				<path fill="#140735" d="M313.5,264.408h-23.57c-0.276,0-0.5-0.224-0.5-0.5s0.224-0.5,0.5-0.5h23.57c0.276,0,0.5,0.224,0.5,0.5
					S313.776,264.408,313.5,264.408z"/>
				<path fill="#140735" d="M313.111,254.408h-22.685c-0.276,0-0.5-0.224-0.5-0.5s0.224-0.5,0.5-0.5h22.685
					c0.276,0,0.5,0.224,0.5,0.5S313.387,254.408,313.111,254.408z"/>
				<path fill="#140735" d="M312.922,244.408H290.7c-0.276,0-0.5-0.224-0.5-0.5s0.224-0.5,0.5-0.5h22.219c0.276,0,0.5,0.224,0.5,0.5
					s-0.224,0.5-0.5,0.5H312.922z"/>
				<path fill="#140735" d="M312.922,234.408h-22.028c-0.276,0-0.5-0.224-0.5-0.5s0.224-0.5,0.5-0.5h22.028
					c0.276,0,0.5,0.224,0.5,0.5S313.198,234.408,312.922,234.408z"/>
				<path fill="#140735" d="M312.524,224.408h-21.63c-0.276,0-0.5-0.224-0.5-0.5s0.224-0.5,0.5-0.5h21.63c0.276,0,0.5,0.224,0.5,0.5
					S312.8,224.408,312.524,224.408z"/>
				<path fill="#140735" d="M312.433,214.408h-21.539c-0.276,0-0.5-0.224-0.5-0.5s0.224-0.5,0.5-0.5h21.539
					c0.276,0,0.5,0.224,0.5,0.5S312.709,214.408,312.433,214.408z"/>
				<path fill="#140735" d="M312.433,204.408h-21.178c-0.276,0-0.5-0.224-0.5-0.5s0.224-0.5,0.5-0.5h21.178
					c0.276,0,0.5,0.224,0.5,0.5S312.709,204.408,312.433,204.408z"/>
				<path fill="#140735" d="M312.433,200.408h-21.011c-0.276,0-0.5-0.224-0.5-0.5s0.224-0.5,0.5-0.5h21.011
					c0.276,0,0.5,0.224,0.5,0.5S312.709,200.408,312.433,200.408L312.433,200.408z"/>
				<path fill="#140735" d="M315.717,190.408h-24.625c-0.276,0-0.5-0.224-0.5-0.5s0.224-0.5,0.5-0.5h24.625
					c0.276,0,0.5,0.224,0.5,0.5S315.993,190.408,315.717,190.408z"/>
			</g>
			<path fill="#140735" d="M317.707,395.167h-31.632c-1.105,0-2-0.896-2-2c0-0.197,0.029-0.393,0.087-0.582
				c12.429-40.83,14.935-96.485,15.729-140.41c0-1.105,0.895-2,2-2s2,0.895,2,2c0.795,43.928,3.3,99.585,15.729,140.41
				c0.321,1.057-0.275,2.174-1.331,2.495C318.1,395.138,317.904,395.167,317.707,395.167L317.707,395.167z M288.756,391.167h26.27
				c-7.433-25.612-11.179-56.522-13.134-86.66C299.937,334.644,296.19,365.552,288.756,391.167z"/>
			<path fill="#140735" d="M382.335,476.867h-27.55c-0.934,0-1.743-0.646-1.95-1.557c-5.579-24.574-26.527-41.736-50.944-41.736
				s-45.365,17.162-50.945,41.736c-0.207,0.911-1.016,1.557-1.95,1.557H221.2c-1.105,0-2-0.895-2.001-1.999
				c0-0.422,0.133-0.834,0.382-1.176c32.243-44.44,51.618-87.822,60.973-136.524c8.685-45.218,8.616-92.855,8.535-148.015
				c-0.009-5.467-0.015-11.017-0.017-16.65c0-1.105,0.895-2,2-2h21.388c1.105,0,2,0.895,2,2c0,5.635-0.006,11.184-0.017,16.646
				c-0.081,55.161-0.15,102.8,8.535,148.018c9.355,48.7,28.73,92.084,60.974,136.525c0.649,0.894,0.45,2.145-0.443,2.793
				c-0.342,0.248-0.753,0.382-1.176,0.382L382.335,476.867z M356.36,472.867h22.074c-31.236-43.83-50.135-86.808-59.382-134.946
				c-8.758-45.595-8.688-93.411-8.607-148.777c0.008-4.816,0.014-9.696,0.017-14.641h-17.388c0,4.948,0.006,9.829,0.017,14.644
				c0.081,55.366,0.151,103.181-8.607,148.775c-9.246,48.138-28.145,91.116-59.38,134.945h22.317
				c6.514-25.572,28.693-43.293,54.47-43.293S349.848,447.3,356.36,472.867z"/>
			<rect x="254.094" y="403.085" fill="#00B5E2" width="95.35" height="6.434"/>
			<rect x="344.796" y="403.085" fill="#FFFFFF" width="4.647" height="6.434"/>
			<rect x="258.143" y="390.423" fill="#00B5E2" width="87.251" height="12.662"/>
			<rect x="341.422" y="390.423" fill="#FFFFFF" width="3.972" height="12.662"/>
			<path fill="#140735" d="M349.443,411.519h-95.349c-1.105,0-2-0.895-2-2v-6.434c0-1.105,0.895-2,2-2h95.349c1.105,0,2,0.895,2,2
				v6.434C351.443,410.624,350.548,411.519,349.443,411.519z M256.094,407.519h91.349v-2.434h-91.349V407.519z"/>
			<path fill="#140735" d="M345.394,405.085h-87.25c-1.105,0-2-0.895-2-2v-12.662c0-1.105,0.895-2,2-2h87.25c1.105,0,2,0.895,2,2
				v12.662C347.394,404.19,346.499,405.085,345.394,405.085z M260.144,401.085h83.25v-8.662h-83.25V401.085z"/>
			<path fill="#140735" d="M266.008,399.559c-0.552,0-1-0.448-1-1v-3.3c0-0.552,0.448-1,1-1s1,0.448,1,1v3.3
				C267.008,399.111,266.56,399.559,266.008,399.559z"/>
			<path fill="#140735" d="M337.774,399.559c-0.552,0-1-0.448-1-1v-3.3c0-0.552,0.448-1,1-1s1,0.448,1,1v3.3
				C338.774,399.111,338.326,399.559,337.774,399.559z"/>
			<path fill="#140735" d="M329.8,399.559c-0.552,0-1-0.448-1-1v-3.3c0-0.552,0.448-1,1-1s1,0.448,1,1v3.3
				C330.8,399.111,330.352,399.559,329.8,399.559z"/>
			<path fill="#140735" d="M321.826,399.559c-0.552,0-1-0.448-1-1v-3.3c0-0.552,0.448-1,1-1s1,0.448,1,1v3.3
				C322.826,399.111,322.378,399.559,321.826,399.559z"/>
			<path fill="#140735" d="M313.852,399.559c-0.552,0-1-0.448-1-1v-3.3c0-0.552,0.448-1,1-1s1,0.448,1,1v3.3
				C314.852,399.111,314.404,399.559,313.852,399.559z"/>
			<path fill="#140735" d="M305.878,399.559c-0.552,0-1-0.448-1-1v-3.3c0-0.552,0.448-1,1-1s1,0.448,1,1v3.3
				C306.878,399.111,306.43,399.559,305.878,399.559z"/>
			<path fill="#140735" d="M297.9,399.559c-0.552,0-1-0.448-1-1v-3.3c0-0.552,0.448-1,1-1s1,0.448,1,1v3.3
				C298.9,399.111,298.452,399.559,297.9,399.559z"/>
			<path fill="#140735" d="M289.93,399.559c-0.552,0-1-0.448-1-1v-3.3c0-0.552,0.448-1,1-1s1,0.448,1,1v3.3
				C290.93,399.111,290.482,399.559,289.93,399.559z"/>
			<path fill="#140735" d="M281.956,399.559c-0.552,0-1-0.448-1-1v-3.3c0-0.552,0.448-1,1-1s1,0.448,1,1v3.3
				C282.956,399.111,282.508,399.559,281.956,399.559z"/>
			<path fill="#140735" d="M273.981,399.559c-0.552,0-1-0.448-1-1v-3.3c0-0.552,0.448-1,1-1s1,0.448,1,1v3.3
				C274.981,399.111,274.533,399.559,273.981,399.559z"/>
			<polygon fill="#00B5E2" points="321.698,341.075 281.839,341.075 279.755,334.131 323.782,334.131 			"/>
			<polygon fill="#FFFFFF" points="320.169,334.131 318.255,341.075 321.868,341.075 323.782,334.131 			"/>
			<path fill="#140735" d="M321.7,343.075h-39.861c-0.884,0-1.662-0.58-1.916-1.426l-2.084-6.943
				c-0.318-1.058,0.283-2.173,1.341-2.491c0.187-0.056,0.381-0.084,0.575-0.084h44.027c1.105,0,2,0.895,2,2
				c0,0.195-0.028,0.389-0.084,0.575l-2.084,6.943C323.361,342.495,322.583,343.074,321.7,343.075z M283.329,339.075h36.881
				l0.884-2.944h-38.651L283.329,339.075z"/>
			<rect x="276.31" y="326.56" fill="#00B5E2" width="50.916" height="7.571"/>
			<rect x="276.31" y="326.56" fill="#00B5E2" width="50.916" height="7.571"/>
			<rect x="323.478" y="326.56" fill="#FFFFFF" width="3.749" height="7.571"/>
			<path fill="#140735" d="M327.227,336.131h-50.916c-1.105,0-2-0.895-2-2v-7.571c0-1.105,0.895-2,2-2h50.916c1.105,0,2,0.895,2,2
				v7.571C329.227,335.236,328.332,336.131,327.227,336.131z M278.311,332.131h46.916v-3.571h-46.916L278.311,332.131z"/>
			<path fill="#140735" d="M301.967,254.211c-1.105,0-2-0.895-2-2V172.5c0-1.105,0.895-2,2-2s2,0.895,2,2v79.708
				c0.002,1.105-0.892,2.001-1.997,2.003C301.969,254.211,301.968,254.211,301.967,254.211z"/>
			<rect x="298.491" y="143.347" fill="#FB2276" width="6.801" height="30.557"/>
			<rect x="301.819" y="143.347" fill="#FFFFFF" width="3.472" height="30.557"/>
			<path fill="#140735" d="M305.291,175.9h-6.8c-1.105,0-2-0.895-2-2v-27.153c0.005-2.982,2.426-5.396,5.408-5.392
				c2.976,0.005,5.387,2.416,5.392,5.392V173.9C307.291,175.005,306.396,175.9,305.291,175.9z M300.491,171.9h2.8v-25.153
				c-0.002-0.773-0.631-1.398-1.404-1.396c-0.77,0.002-1.394,0.626-1.396,1.396V171.9z"/>
			<path fill="#140735" d="M301.766,145.347c-1.105,0-2-0.895-2-2v-23.94c0-1.105,0.895-2,2-2s2,0.895,2,2v23.94
				C303.766,144.452,302.871,145.347,301.766,145.347z"/>
			<circle fill="#00B5E2" cx="301.891" cy="171.007" r="13.402"/>
			<path fill="#FFFFFF" d="M301.891,157.6c-0.751,0.004-1.5,0.071-2.24,0.2c7.29,1.228,12.204,8.134,10.976,15.424
				c-0.947,5.623-5.353,10.029-10.976,10.976c7.29,1.273,14.232-3.604,15.506-10.895c1.273-7.29-3.604-14.232-10.895-15.506
				C303.479,157.663,302.686,157.596,301.891,157.6L301.891,157.6z"/>
			<path fill="#140735" d="M301.891,185.91c-8.229,0-14.9-6.671-14.9-14.9s6.671-14.9,14.9-14.9c8.229,0,14.9,6.671,14.9,14.9v0
				C316.781,179.235,310.116,185.9,301.891,185.91z M301.891,159.105c-6.572,0-11.9,5.328-11.9,11.9s5.328,11.9,11.9,11.9
				c6.572,0,11.9-5.328,11.9-11.9c0,0,0,0,0,0c-0.006-6.57-5.329-11.896-11.9-11.905V159.105z"/>
			<polygon fill="#00B5E2" points="285.949,172.236 287.813,178.967 287.813,192.121 315.717,192.121 315.717,178.967 
				317.581,172.236 			"/>
			<polygon fill="#FFFFFF" points="314.306,172.236 312.442,178.967 312.442,192.121 315.717,192.121 315.717,178.967 
				317.581,172.236 			"/>
			<path fill="#140735" d="M315.717,194.121h-27.9c-1.105,0-2-0.895-2-2v-12.882l-1.792-6.469c-0.295-1.064,0.329-2.166,1.393-2.461
				c0.174-0.048,0.354-0.073,0.535-0.073h31.632c1.105,0,2,0.895,2.001,1.999c0,0.181-0.024,0.361-0.073,0.535l-1.792,6.469v12.882
				c0,1.105-0.895,2-2,2C315.72,194.121,315.718,194.121,315.717,194.121z M289.817,190.121h23.9v-11.154
				c0-0.18,0.024-0.36,0.072-0.534l1.163-4.2h-26.374l1.163,4.2c0.048,0.174,0.072,0.354,0.072,0.534L289.817,190.121z"/>
			<path fill="#140735" d="M297.41,193.621c-0.828,0-1.5-0.672-1.5-1.5v-7.711c0-0.828,0.672-1.5,1.5-1.5s1.5,0.672,1.5,1.5v7.711
				C298.91,192.949,298.238,193.621,297.41,193.621z"/>
			<path fill="#140735" d="M306.12,193.621c-0.828,0-1.5-0.672-1.5-1.5v-7.711c0-0.828,0.672-1.5,1.5-1.5s1.5,0.672,1.5,1.5v7.711
				C307.62,192.949,306.948,193.621,306.12,193.621z"/>
			<rect x="285.949" y="165.018" fill="#00B5E2" width="31.632" height="7.218"/>
			<rect x="314.404" y="165.018" fill="#FFFFFF" width="3.177" height="7.218"/>
			<path fill="#140735" d="M317.581,174.236h-31.632c-1.105,0-2-0.895-2-2v-7.217c0-1.105,0.895-2,2-2h31.632c1.105,0,2,0.895,2,2
				v7.217C319.581,173.341,318.686,174.236,317.581,174.236z M287.949,170.236h27.632v-3.217h-27.632V170.236z"/>
		</g>
	</g>
</g>
</svg>